<?xml version="1.0" encoding="UTF-8"?>
<svg id="Lager_1" data-name="Lager 1"
    xmlns="http://www.w3.org/2000/svg" viewBox="0 0 1547.35 837.28">
    <defs>
        <style>
                .cls-1 {
                  fill: #ffc280;
                }
          
                .cls-2 {
                  fill: #8c6239;
                }
          
                .cls-3 {
                  fill: #a67c52;
                }
          
                .cls-4 {
                  fill: #449aff;
                }
          
                .cls-5 {
                  fill: #44abff;
                }
        </style>
    </defs>
    <path class="cls-5" d="m753.01,248.26c312.99-28.74,535-467,714-107,179,360,21,570-107,635-128,65-889,130-1085-100C146.68,525.68-67.99,158.26,21.01,51.26c89-107,536,215,732,197Z"/>
    <path class="cls-4" d="m1022.8,832.78c-46.43-91.01-154.37-266.8-317.3-315.02-166.63-49.32-282.08,135.7-329.8,232.4,162.09,80.51,429.25,95.38,647.1,82.62Z"/>
    <ellipse class="cls-2" cx="864.51" cy="366.26" rx="538" ry="291.5"/>
    <ellipse class="cls-3" cx="856.51" cy="347.26" rx="538" ry="291.5"/>
    <path class="cls-1" d="m404.3,44.12c1.93,0,1.93-3,0-3s-1.93,3,0,3h0Z"/>
</svg>